<svg id="svg" xmlns="http://www.w3.org/2000/svg" xmlns:xlink="http://www.w3.org/1999/xlink" width="400" height="393.8189845474614" viewBox="0, 0, 400,393.8189845474614"><g id="svgg"><path id="path0" d="M242.384 18.009 C 216.792 24.280,203.515 48.206,196.029 101.545 C 194.972 109.073,194.043 115.295,193.963 115.371 C 193.884 115.448,190.243 116.130,185.872 116.886 C 124.393 127.523,95.703 193.903,130.298 245.466 C 139.772 259.587,158.220 273.071,173.731 277.212 L 177.483 278.214 177.483 283.999 C 177.483 297.982,172.123 338.303,168.929 348.344 C 161.919 370.382,147.036 377.952,128.299 369.010 L 122.443 366.215 126.335 364.344 C 136.982 359.224,137.037 345.109,126.429 339.861 C 116.819 335.105,107.384 341.768,107.492 353.234 C 107.690 374.243,138.237 386.540,162.281 375.289 C 181.699 366.202,192.904 343.130,199.415 298.826 C 202.380 278.648,200.841 281.268,210.728 279.567 C 246.477 273.415,279.912 239.420,279.912 209.225 C 279.912 204.045,280.390 204.285,293.386 215.989 C 306.086 227.427,308.034 228.422,310.464 224.712 C 312.381 221.787,311.521 220.527,293.760 200.225 C 280.601 185.184,279.096 182.896,277.653 175.737 C 272.811 151.714,246.804 125.394,221.746 119.157 L 217.885 118.196 218.469 110.974 C 222.910 56.087,226.999 38.980,237.988 29.306 C 245.326 22.848,256.578 22.159,267.479 27.502 L 273.147 30.280 268.990 32.393 C 259.714 37.107,258.569 48.238,266.661 55.047 C 274.512 61.654,286.780 56.803,288.328 46.480 C 291.113 27.908,265.858 12.257,242.384 18.009 M192.158 132.230 C 189.855 147.752,185.868 186.393,181.385 236.645 C 180.064 251.457,178.669 263.930,178.286 264.362 C 175.726 267.251,151.029 250.859,143.473 241.255 C 112.209 201.522,134.495 139.273,183.223 130.225 C 192.890 128.430,192.728 128.394,192.158 132.230 M223.916 134.186 C 244.597 143.563,257.436 157.029,264.064 176.294 C 267.092 185.095,267.846 183.701,248.325 205.411 C 234.819 220.431,233.439 222.747,236.508 225.233 C 239.432 227.600,241.032 226.643,253.162 215.277 C 263.583 205.512,267.550 202.269,267.550 203.516 C 267.550 231.141,239.645 262.026,210.475 266.686 C 203.036 267.874,203.427 269.268,206.085 251.049 C 209.866 225.140,213.204 191.716,215.459 157.174 C 216.727 137.755,217.281 131.567,217.750 131.567 C 217.965 131.567,220.739 132.746,223.916 134.186 " stroke="#f2f2f2" stroke-width="2" fill="#f2f2f2" fill-rule="evenodd"></path></g></svg>
